<?xml version="1.0" encoding="UTF-8"?>
<svg id="Layer_1" xmlns="http://www.w3.org/2000/svg" viewBox="0 0 134.98 47.6">
  <defs>
    <style>
      .cls-1 {
        fill: #fff;
      }

      .cls-2 {
        fill: none;
        stroke: #fff;
        stroke-miterlimit: 10;
      }
    </style>
  </defs>
  <g>
    <polygon class="cls-2" points=".93 11.27 3.39 8.31 12.71 4.76 18.81 .53 26.61 2.05 30.75 5.18 33.72 8.74 31.92 10.43 28.32 13.05 22.91 14.74 18.01 16.27 15.53 18.31 15.89 13.89 12.01 11.61 4.46 11.92 .93 11.27"/>
    <line class="cls-2" x1="4.46" y1="11.92" x2="3.39" y2="8.31"/>
    <line class="cls-2" x1="9.25" y1="6.08" x2="4.95" y2="11.92"/>
    <line class="cls-2" x1="9.8" y1="6.08" x2="12.01" y2="11.61"/>
    <polyline class="cls-2" points="26.61 2.05 12.71 4.76 12.71 12.03"/>
    <line class="cls-2" x1="15.89" y1="13.89" x2="13.95" y2="4.76"/>
    <line class="cls-2" x1="22.27" y1="2.9" x2="15.56" y2="11.61"/>
    <line class="cls-2" x1="22.91" y1="14.74" x2="15.44" y2="11.92"/>
    <line class="cls-2" x1="22.91" y1="2.86" x2="23.6" y2="14.44"/>
    <line class="cls-2" x1="28.32" y1="13.05" x2="23.25" y2="8.65"/>
    <line class="cls-2" x1="23.25" y1="7.81" x2="33.72" y2="8.74"/>
    <line class="cls-2" x1="23.25" y1="7.26" x2="26.61" y2="2.36"/>
  </g>
  <g>
    <path class="cls-1" d="M.9,14.57h4.08c2.72,0,4.56.1,5.53.3.96.2,1.75.7,2.36,1.51.61.81.91,2.1.91,3.88,0,1.62-.21,2.71-.64,3.27-.43.56-1.27.89-2.53,1,1.14.27,1.91.62,2.3,1.07.39.45.64.86.73,1.23.1.37.14,1.4.14,3.08v5.49h-5.36v-6.92c0-1.11-.09-1.8-.28-2.07-.19-.27-.68-.4-1.47-.4v9.39H.9V14.57ZM6.67,18.14v4.63c.65,0,1.1-.08,1.36-.25.26-.17.39-.71.39-1.63v-1.14c0-.66-.13-1.09-.38-1.3-.25-.21-.71-.31-1.38-.31Z"/>
    <path class="cls-1" d="M28.37,24.32v4.18c0,1.53-.08,2.66-.25,3.38-.16.72-.52,1.38-1.05,2.01-.54.62-1.23,1.08-2.08,1.38-.84.3-1.81.44-2.91.44-1.22,0-2.26-.13-3.11-.38-.85-.25-1.51-.63-1.98-1.14-.47-.51-.81-1.13-1.01-1.85-.2-.72-.3-1.81-.3-3.26v-4.37c0-1.59.18-2.83.55-3.72.37-.89,1.02-1.61,1.97-2.15.95-.54,2.16-.81,3.64-.81,1.24,0,2.31.17,3.2.52s1.58.8,2.06,1.36c.48.56.82,1.13.99,1.72s.27,1.49.27,2.7ZM22.83,23.04c0-.87-.05-1.43-.15-1.65-.1-.23-.32-.34-.64-.34s-.55.11-.66.34c-.11.23-.16.78-.16,1.65v7.7c0,.81.05,1.33.16,1.58.11.24.32.37.64.37s.55-.11.65-.33c.1-.22.16-.7.16-1.44v-7.87Z"/>
    <path class="cls-1" d="M42.71,24.32v4.18c0,1.53-.08,2.66-.25,3.38-.16.72-.52,1.38-1.05,2.01-.54.62-1.23,1.08-2.08,1.38-.84.3-1.81.44-2.91.44-1.22,0-2.26-.13-3.11-.38-.85-.25-1.51-.63-1.98-1.14-.47-.51-.81-1.13-1.01-1.85-.2-.72-.3-1.81-.3-3.26v-4.37c0-1.59.18-2.83.55-3.72.37-.89,1.02-1.61,1.97-2.15.95-.54,2.16-.81,3.64-.81,1.24,0,2.31.17,3.2.52s1.58.8,2.06,1.36c.48.56.82,1.13.99,1.72s.27,1.49.27,2.7ZM37.17,23.04c0-.87-.05-1.43-.15-1.65-.1-.23-.32-.34-.64-.34s-.55.11-.66.34c-.11.23-.16.78-.16,1.65v7.7c0,.81.05,1.33.16,1.58.11.24.32.37.64.37s.55-.11.65-.33c.1-.22.16-.7.16-1.44v-7.87Z"/>
    <path class="cls-1" d="M56.45,18.33l-2.25,6.8,2.92,10.27h-5.32l-1.73-7.44v7.44h-5.54V14.57h5.53v8.74s1.73-4.99,1.73-4.99h4.65Z"/>
    <path class="cls-1" d="M69.24,23.78h-4.9v-.93c0-.79-.05-1.29-.14-1.5-.1-.21-.34-.31-.72-.31-.31,0-.54.1-.7.29-.16.19-.23.48-.23.87,0,.52.04.91.12,1.15.08.24.31.51.7.8.39.29,1.18.72,2.39,1.27,1.61.74,2.66,1.43,3.16,2.08.5.65.75,1.6.75,2.84,0,1.39-.19,2.44-.58,3.14-.38.71-1.03,1.25-1.92,1.63-.9.38-1.98.57-3.25.57-1.41,0-2.61-.21-3.61-.62s-1.69-.97-2.06-1.67c-.37-.7-.56-1.77-.56-3.19v-.82h4.9v1.08c0,.92.06,1.51.18,1.79.12.27.37.41.73.41.39,0,.67-.09.82-.28.16-.18.23-.57.23-1.16,0-.81-.1-1.32-.3-1.53-.21-.21-1.28-.81-3.22-1.83-1.63-.86-2.62-1.64-2.97-2.33-.36-.7-.53-1.53-.53-2.49,0-1.36.19-2.37.58-3.02.38-.65,1.03-1.15,1.95-1.5s1.98-.53,3.2-.53,2.23.14,3.08.43c.84.29,1.49.67,1.95,1.14.45.47.73.91.82,1.31.1.4.14,1.03.14,1.89v.99Z"/>
    <path class="cls-1" d="M71.31,14.57h4.08c2.72,0,4.56.1,5.53.3.96.2,1.75.7,2.36,1.51.61.81.91,2.1.91,3.88,0,1.62-.21,2.71-.64,3.27-.43.56-1.27.89-2.53,1,1.14.27,1.91.62,2.3,1.07.39.45.64.86.73,1.23.1.37.14,1.4.14,3.08v5.49h-5.36v-6.92c0-1.11-.09-1.8-.28-2.07-.19-.27-.68-.4-1.47-.4v9.39h-5.77V14.57ZM77.07,18.14v4.63c.65,0,1.1-.08,1.36-.25.26-.17.39-.71.39-1.63v-1.14c0-.66-.13-1.09-.38-1.3-.25-.21-.71-.31-1.38-.31Z"/>
    <path class="cls-1" d="M98.77,24.32v4.18c0,1.53-.08,2.66-.25,3.38-.16.72-.52,1.38-1.05,2.01-.54.62-1.23,1.08-2.08,1.38-.84.3-1.82.44-2.91.44-1.22,0-2.26-.13-3.11-.38-.85-.25-1.51-.63-1.98-1.14-.47-.51-.81-1.13-1.01-1.85-.2-.72-.3-1.81-.3-3.26v-4.37c0-1.59.18-2.83.55-3.72.37-.89,1.02-1.61,1.97-2.15.95-.54,2.16-.81,3.64-.81,1.24,0,2.31.17,3.2.52.89.35,1.58.8,2.06,1.36.48.56.82,1.13.99,1.72.18.59.27,1.49.27,2.7ZM93.24,23.04c0-.87-.05-1.43-.15-1.65-.1-.23-.32-.34-.64-.34s-.55.11-.66.34c-.11.23-.16.78-.16,1.65v7.7c0,.81.05,1.33.16,1.58.11.24.32.37.64.37s.55-.11.65-.33c.1-.22.16-.7.16-1.44v-7.87Z"/>
    <path class="cls-1" d="M113.11,24.32v4.18c0,1.53-.08,2.66-.25,3.38-.16.72-.52,1.38-1.05,2.01-.54.62-1.23,1.08-2.08,1.38-.84.3-1.82.44-2.91.44-1.22,0-2.26-.13-3.11-.38-.85-.25-1.51-.63-1.98-1.14-.47-.51-.81-1.13-1.01-1.85-.2-.72-.3-1.81-.3-3.26v-4.37c0-1.59.18-2.83.55-3.72.37-.89,1.02-1.61,1.97-2.15.95-.54,2.16-.81,3.64-.81,1.24,0,2.31.17,3.2.52.89.35,1.58.8,2.06,1.36.48.56.82,1.13.99,1.72.18.59.27,1.49.27,2.7ZM107.58,23.04c0-.87-.05-1.43-.15-1.65-.1-.23-.32-.34-.64-.34s-.55.11-.66.34c-.11.23-.16.78-.16,1.65v7.7c0,.81.05,1.33.16,1.58.11.24.32.37.64.37s.55-.11.65-.33c.1-.22.16-.7.16-1.44v-7.87Z"/>
    <path class="cls-1" d="M120.4,18.33l-.1,1.62c.43-.64.94-1.13,1.53-1.45.59-.32,1.27-.48,2.03-.48,1.48,0,2.64.64,3.49,1.93.47-.64.99-1.13,1.58-1.45.58-.32,1.23-.48,1.95-.48.94,0,1.72.21,2.34.64.62.43,1.01.95,1.18,1.58.17.62.26,1.63.26,3.03v12.13h-5.37v-11.13c0-1.46-.05-2.36-.16-2.71-.1-.35-.35-.52-.73-.52s-.65.17-.76.51c-.11.34-.17,1.25-.17,2.71v11.13h-5.37v-10.84c0-1.67-.04-2.68-.13-3.01-.09-.33-.33-.5-.72-.5-.25,0-.46.09-.63.26-.17.18-.27.39-.29.64-.02.25-.03.79-.03,1.61v11.83h-5.37v-17.07h5.47Z"/>
  </g>
  <g>
    <path class="cls-1" d="M93.1,40.24h-2.72v-.89c0-.56-.03-.91-.08-1.06s-.17-.21-.37-.21c-.17,0-.28.06-.34.18-.06.12-.09.43-.09.93v4.71c0,.44.03.73.09.87.06.14.18.21.36.21.2,0,.33-.08.4-.24s.11-.47.11-.92v-1.16h-.55v-1.49h3.19v5.27h-1.71l-.25-.7c-.19.3-.42.53-.7.68-.28.15-.62.23-1,.23-.46,0-.88-.1-1.28-.31s-.7-.47-.91-.77-.34-.63-.39-.97c-.05-.34-.08-.84-.08-1.52v-2.92c0-.94.05-1.62.16-2.04.11-.42.42-.81.93-1.17.51-.35,1.17-.53,1.98-.53s1.46.15,1.98.46c.53.31.87.67,1.03,1.09.16.42.24,1.04.24,1.84v.42Z"/>
    <path class="cls-1" d="M96.69,38.4l-.1,1.06c.38-.76.93-1.16,1.65-1.2v2.83c-.48,0-.83.06-1.05.18-.22.12-.36.29-.41.51-.05.22-.08.71-.08,1.5v3.18h-2.61v-8.05h2.61Z"/>
    <path class="cls-1" d="M101.15,41.52h-2.45v-.54c0-.62.08-1.1.23-1.44.15-.34.46-.64.92-.89.46-.26,1.06-.39,1.8-.39.88,0,1.55.15,2,.44.45.29.72.65.81,1.08.09.43.14,1.31.14,2.64v4.04h-2.54v-.72c-.16.29-.37.5-.62.65-.25.14-.55.22-.9.22-.46,0-.88-.12-1.26-.36-.38-.24-.57-.77-.57-1.58v-.66c0-.6.1-1.01.3-1.23.2-.22.7-.47,1.51-.76.86-.32,1.32-.53,1.38-.64.06-.11.09-.33.09-.67,0-.42-.03-.69-.1-.82s-.18-.19-.33-.19c-.18,0-.29.05-.33.16-.04.11-.06.39-.06.83v.84ZM101.97,42.62c-.42.29-.66.53-.73.72s-.1.47-.1.84c0,.42.03.69.09.81s.17.18.35.18.27-.05.32-.14c.05-.09.07-.34.07-.75v-1.66Z"/>
    <path class="cls-1" d="M108.14,38.4l-.05.71c.23-.29.49-.5.77-.64.28-.14.59-.21.92-.21.4,0,.75.1,1.05.31.3.2.48.44.55.71.07.27.11.72.11,1.36v3.39c0,.73-.05,1.25-.14,1.56s-.28.56-.57.74-.63.28-1.04.28c-.32,0-.62-.07-.9-.21-.28-.14-.53-.35-.76-.63v1.85h-2.61v-9.2h2.66ZM108.88,40.74c0-.5-.02-.8-.06-.9s-.15-.16-.32-.16-.28.06-.33.18-.07.41-.07.88v3.34c0,.49.03.79.08.91s.16.18.34.18.27-.06.31-.17c.04-.11.06-.38.06-.81v-3.45Z"/>
    <path class="cls-1" d="M114.96,36.63v2.21c.22-.19.47-.34.73-.44.26-.1.54-.15.84-.15.46,0,.85.11,1.17.33s.52.47.59.76.11.81.11,1.56v5.55h-2.61v-5.67c0-.47-.02-.77-.07-.9s-.16-.2-.33-.2c-.16,0-.27.07-.32.21-.06.14-.08.41-.08.82v5.75h-2.61v-9.82h2.61Z"/>
    <path class="cls-1" d="M121.97,36.63v1.28h-2.69v-1.28h2.69ZM121.97,38.4v8.05h-2.69v-8.05h2.69Z"/>
    <path class="cls-1" d="M128.68,41.44h-2.46v-.93c0-.32-.03-.54-.08-.66-.06-.12-.16-.17-.31-.17s-.25.05-.3.15-.08.33-.08.68v3.8c0,.29.04.5.12.65.08.14.19.22.34.22.18,0,.3-.07.36-.22s.09-.43.09-.85v-.96h2.33c0,.64-.03,1.13-.07,1.45s-.19.65-.43.99c-.24.34-.56.59-.95.76-.39.17-.88.26-1.45.26-.74,0-1.32-.12-1.75-.36-.43-.24-.74-.57-.91-.99-.18-.43-.27-1.03-.27-1.82v-2.29c0-.68.07-1.2.22-1.55.15-.35.46-.66.94-.93s1.06-.41,1.74-.41,1.26.14,1.74.41c.48.27.8.61.96,1.03.16.41.24,1,.24,1.75Z"/>
    <path class="cls-1" d="M134.78,40.97h-2.31v-.44c0-.37-.02-.61-.07-.71-.05-.1-.16-.15-.34-.15-.15,0-.26.05-.33.14-.07.09-.11.23-.11.41,0,.25.02.43.05.54s.15.24.33.38.56.34,1.13.6c.76.35,1.26.68,1.49.98.24.31.36.75.36,1.34,0,.66-.09,1.15-.27,1.48s-.48.59-.91.77c-.42.18-.94.27-1.53.27-.66,0-1.23-.1-1.7-.29s-.8-.46-.97-.79c-.18-.33-.26-.83-.26-1.5v-.39h2.31v.51c0,.43.03.71.09.84s.17.19.35.19c.19,0,.31-.04.39-.13.07-.09.11-.27.11-.55,0-.38-.05-.62-.14-.72-.1-.1-.61-.38-1.52-.86-.77-.4-1.23-.77-1.4-1.1-.17-.33-.25-.72-.25-1.17,0-.64.09-1.12.27-1.42.18-.31.49-.54.92-.71s.94-.25,1.51-.25,1.05.07,1.45.2c.4.14.7.31.92.54s.34.43.39.62.07.49.07.89v.47Z"/>
  </g>
</svg>