<?xml version="1.0" encoding="UTF-8"?>
<svg id="Layer_4" xmlns="http://www.w3.org/2000/svg" viewBox="0 0 633.05 348.74">
  <defs>
    <style>
      .cls-1 {
        fill: #fff;
      }

      .cls-2 {
        stroke-width: 3px;
      }

      .cls-2, .cls-3 {
        fill: none;
        stroke: #fff;
        stroke-miterlimit: 10;
      }

      .cls-3 {
        stroke-width: 2px;
      }
    </style>
  </defs>
  <g>
    <polygon class="cls-2" points="126.52 202.57 135.79 190.66 171.04 176.36 194.09 159.34 223.54 165.47 239.2 178.06 250.43 192.36 243.62 199.17 230.01 209.72 209.58 216.53 191.05 222.66 181.67 230.87 183.03 213.1 168.39 203.94 139.87 205.17 126.52 202.57"/>
    <line class="cls-3" x1="139.87" y1="205.17" x2="135.79" y2="190.66"/>
    <line class="cls-3" x1="157.94" y1="181.68" x2="141.71" y2="205.17"/>
    <line class="cls-3" x1="160.02" y1="181.68" x2="168.39" y2="203.94"/>
    <polyline class="cls-3" points="223.54 165.47 171.04 176.36 171.04 205.6"/>
    <line class="cls-3" x1="183.03" y1="213.1" x2="175.71" y2="176.36"/>
    <line class="cls-3" x1="207.15" y1="168.89" x2="181.79" y2="203.94"/>
    <line class="cls-3" x1="209.58" y1="216.53" x2="181.34" y2="205.17"/>
    <line class="cls-3" x1="209.58" y1="168.72" x2="212.16" y2="215.29"/>
    <line class="cls-3" x1="230.01" y1="209.72" x2="210.87" y2="192.01"/>
    <line class="cls-3" x1="210.87" y1="188.62" x2="250.43" y2="192.36"/>
    <line class="cls-3" x1="210.87" y1="186.41" x2="223.54" y2="166.71"/>
  </g>
  <g>
    <path class="cls-1" d="M126.41,215.85h15.42c10.28,0,17.24.4,20.88,1.19,3.64.79,6.61,2.82,8.9,6.08,2.29,3.26,3.44,8.46,3.44,15.61,0,6.52-.81,10.9-2.43,13.15-1.62,2.24-4.81,3.59-9.58,4.04,4.31,1.07,7.21,2.5,8.7,4.3,1.48,1.79,2.41,3.44,2.77,4.94.36,1.5.54,5.63.54,12.4v22.1h-20.24v-27.85c0-4.49-.35-7.26-1.06-8.33-.71-1.07-2.56-1.6-5.56-1.6v37.78h-21.79v-83.8ZM148.2,230.19v18.63c2.45,0,4.17-.34,5.15-1.01.98-.67,1.48-2.85,1.48-6.55v-4.61c0-2.66-.47-4.4-1.42-5.23-.95-.83-2.68-1.24-5.2-1.24Z"/>
    <path class="cls-1" d="M230.18,255.08v16.82c0,6.18-.31,10.71-.93,13.59-.62,2.88-1.95,5.57-3.99,8.07-2.04,2.5-4.65,4.35-7.84,5.54-3.19,1.19-6.86,1.79-11,1.79-4.62,0-8.54-.51-11.75-1.53-3.21-1.02-5.7-2.55-7.48-4.61-1.78-2.05-3.05-4.54-3.8-7.45-.76-2.92-1.14-7.29-1.14-13.12v-17.6c0-6.38.69-11.37,2.07-14.96,1.38-3.59,3.86-6.47,7.45-8.64,3.59-2.17,8.18-3.26,13.77-3.26,4.69,0,8.72.7,12.09,2.1s5.96,3.22,7.79,5.46c1.83,2.24,3.08,4.55,3.75,6.94s1.01,6,1.01,10.87ZM209.27,249.91c0-3.52-.19-5.74-.57-6.65-.38-.91-1.19-1.37-2.43-1.37s-2.07.46-2.48,1.37c-.41.92-.62,3.13-.62,6.65v31c0,3.24.21,5.36.62,6.34.41.98,1.22,1.48,2.43,1.48s2.06-.45,2.46-1.35c.4-.9.6-2.83.6-5.8v-31.68Z"/>
    <path class="cls-1" d="M284.37,255.08v16.82c0,6.18-.31,10.71-.93,13.59-.62,2.88-1.95,5.57-3.99,8.07-2.04,2.5-4.65,4.35-7.84,5.54-3.19,1.19-6.86,1.79-11,1.79-4.62,0-8.54-.51-11.75-1.53-3.21-1.02-5.7-2.55-7.48-4.61-1.78-2.05-3.05-4.54-3.8-7.45-.76-2.92-1.14-7.29-1.14-13.12v-17.6c0-6.38.69-11.37,2.07-14.96,1.38-3.59,3.86-6.47,7.45-8.64,3.59-2.17,8.18-3.26,13.77-3.26,4.69,0,8.72.7,12.09,2.1s5.96,3.22,7.79,5.46c1.83,2.24,3.08,4.55,3.75,6.94s1.01,6,1.01,10.87ZM263.46,249.91c0-3.52-.19-5.74-.57-6.65-.38-.91-1.19-1.37-2.43-1.37s-2.07.46-2.48,1.37c-.41.92-.62,3.13-.62,6.65v31c0,3.24.21,5.36.62,6.34.41.98,1.22,1.48,2.43,1.48s2.06-.45,2.46-1.35c.4-.9.6-2.83.6-5.8v-31.68Z"/>
    <path class="cls-1" d="M336.28,230.96l-8.49,27.35,11.02,41.33h-20.11l-6.52-29.93-.03,29.93h-20.91v-83.8h20.91l.03,35.18,6.52-20.06h17.57Z"/>
    <path class="cls-1" d="M384.63,252.91h-18.53v-3.73c0-3.17-.18-5.18-.54-6.03-.36-.84-1.27-1.27-2.72-1.27-1.17,0-2.05.39-2.64,1.16-.59.78-.88,1.94-.88,3.49,0,2.11.15,3.65.44,4.63.29.98,1.17,2.06,2.64,3.23,1.47,1.17,4.48,2.88,9.03,5.12,6.07,2.97,10.06,5.76,11.96,8.38,1.9,2.62,2.85,6.44,2.85,11.44,0,5.59-.72,9.81-2.17,12.65-1.45,2.85-3.88,5.04-7.27,6.57-3.4,1.53-7.5,2.3-12.29,2.3-5.31,0-9.86-.83-13.64-2.48s-6.38-3.9-7.79-6.73c-1.42-2.83-2.12-7.11-2.12-12.84v-3.31h18.53v4.35c0,3.69.23,6.09.7,7.19.47,1.1,1.39,1.66,2.77,1.66,1.48,0,2.52-.37,3.11-1.11.59-.74.88-2.3.88-4.68,0-3.28-.38-5.33-1.14-6.16-.79-.83-4.85-3.28-12.16-7.35-6.14-3.45-9.89-6.58-11.23-9.39-1.35-2.81-2.02-6.15-2.02-10.01,0-5.49.72-9.53,2.17-12.14,1.45-2.6,3.91-4.61,7.38-6.03s7.5-2.12,12.09-2.12,8.43.58,11.62,1.73c3.19,1.16,5.64,2.68,7.35,4.58,1.71,1.9,2.74,3.66,3.11,5.28.36,1.62.54,4.16.54,7.61v3.99Z"/>
    <path class="cls-1" d="M392.44,215.85h15.42c10.28,0,17.24.4,20.88,1.19,3.64.79,6.61,2.82,8.9,6.08,2.29,3.26,3.44,8.46,3.44,15.61,0,6.52-.81,10.9-2.43,13.15-1.62,2.24-4.81,3.59-9.58,4.04,4.31,1.07,7.21,2.5,8.7,4.3,1.48,1.79,2.41,3.44,2.77,4.94.36,1.5.54,5.63.54,12.4v22.1h-20.24v-27.85c0-4.49-.35-7.26-1.06-8.33-.71-1.07-2.56-1.6-5.56-1.6v37.78h-21.79v-83.8ZM414.23,230.19v18.63c2.45,0,4.17-.34,5.15-1.01.98-.67,1.48-2.85,1.48-6.55v-4.61c0-2.66-.47-4.4-1.42-5.23-.95-.83-2.68-1.24-5.2-1.24Z"/>
    <path class="cls-1" d="M496.22,255.08v16.82c0,6.18-.31,10.71-.93,13.59-.62,2.88-1.95,5.57-3.99,8.07-2.04,2.5-4.65,4.35-7.84,5.54-3.19,1.19-6.86,1.79-11,1.79-4.62,0-8.54-.51-11.75-1.53-3.21-1.02-5.7-2.55-7.48-4.61-1.78-2.05-3.05-4.54-3.8-7.45-.76-2.92-1.14-7.29-1.14-13.12v-17.6c0-6.38.69-11.37,2.07-14.96,1.38-3.59,3.86-6.47,7.45-8.64,3.59-2.17,8.18-3.26,13.77-3.26,4.69,0,8.72.7,12.09,2.1,3.36,1.4,5.96,3.22,7.79,5.46,1.83,2.24,3.08,4.55,3.75,6.94.67,2.38,1.01,6,1.01,10.87ZM475.31,249.91c0-3.52-.19-5.74-.57-6.65-.38-.91-1.19-1.37-2.43-1.37s-2.07.46-2.48,1.37c-.41.92-.62,3.13-.62,6.65v31c0,3.24.21,5.36.62,6.34.41.98,1.22,1.48,2.43,1.48s2.06-.45,2.46-1.35c.4-.9.6-2.83.6-5.8v-31.68Z"/>
    <path class="cls-1" d="M550.41,255.08v16.82c0,6.18-.31,10.71-.93,13.59-.62,2.88-1.95,5.57-3.99,8.07-2.04,2.5-4.65,4.35-7.84,5.54-3.19,1.19-6.86,1.79-11,1.79-4.62,0-8.54-.51-11.75-1.53-3.21-1.02-5.7-2.55-7.48-4.61-1.78-2.05-3.05-4.54-3.8-7.45-.76-2.92-1.14-7.29-1.14-13.12v-17.6c0-6.38.69-11.37,2.07-14.96,1.38-3.59,3.86-6.47,7.45-8.64,3.59-2.17,8.18-3.26,13.77-3.26,4.69,0,8.72.7,12.09,2.1,3.36,1.4,5.96,3.22,7.79,5.46,1.83,2.24,3.08,4.55,3.75,6.94.67,2.38,1.01,6,1.01,10.87ZM529.5,249.91c0-3.52-.19-5.74-.57-6.65-.38-.91-1.19-1.37-2.43-1.37s-2.07.46-2.48,1.37c-.41.92-.62,3.13-.62,6.65v31c0,3.24.21,5.36.62,6.34.41.98,1.22,1.48,2.43,1.48s2.06-.45,2.46-1.35c.4-.9.6-2.83.6-5.8v-31.68Z"/>
    <path class="cls-1" d="M577.94,230.96l-.36,6.53c1.62-2.59,3.55-4.54,5.8-5.83,2.24-1.3,4.8-1.94,7.66-1.94,5.59,0,9.99,2.59,13.2,7.78,1.76-2.59,3.74-4.54,5.95-5.83,2.21-1.3,4.66-1.94,7.35-1.94,3.55,0,6.5.86,8.82,2.59,2.33,1.73,3.82,3.84,4.48,6.34.66,2.5.98,6.57.98,12.19v48.81h-20.29v-44.77c0-5.87-.2-9.5-.6-10.9-.4-1.4-1.32-2.1-2.77-2.1s-2.44.69-2.87,2.07c-.43,1.38-.65,5.02-.65,10.92v44.77h-20.29v-43.63c0-6.73-.16-10.77-.49-12.11-.33-1.35-1.23-2.02-2.72-2.02-.93,0-1.73.35-2.38,1.06-.66.71-1.02,1.57-1.09,2.59-.07,1.02-.1,3.18-.1,6.5v47.62h-20.29v-68.68h20.65Z"/>
  </g>
  <g>
    <path class="cls-1" d="M474.8,319.15h-10.28v-3.59c0-2.26-.1-3.68-.29-4.25s-.66-.85-1.39-.85c-.63,0-1.07.24-1.29.73-.23.49-.34,1.74-.34,3.76v18.97c0,1.77.11,2.94.34,3.5.23.56.68.84,1.37.84.75,0,1.26-.32,1.53-.95s.4-1.87.4-3.71v-4.69h-2.08v-6.01h12.04v21.22h-6.46l-.95-2.83c-.7,1.22-1.58,2.14-2.65,2.75-1.07.61-2.33.92-3.77.92-1.73,0-3.34-.42-4.85-1.26s-2.65-1.88-3.43-3.11-1.27-2.54-1.47-3.89c-.2-1.36-.29-3.4-.29-6.12v-11.74c0-3.78.2-6.52.61-8.23.41-1.71,1.57-3.28,3.5-4.7,1.93-1.42,4.42-2.14,7.48-2.14s5.51.62,7.5,1.86c1.99,1.24,3.28,2.71,3.88,4.41.6,1.7.9,4.17.9,7.41v1.71Z"/>
    <path class="cls-1" d="M488.35,311.73l-.39,4.26c1.43-3.05,3.51-4.67,6.23-4.85v11.4c-1.81,0-3.13.24-3.98.73-.85.49-1.37,1.17-1.56,2.04-.2.87-.29,2.88-.29,6.02v12.79h-9.86v-32.4h9.86Z"/>
    <path class="cls-1" d="M505.19,324.28h-9.25v-2.17c0-2.51.29-4.44.87-5.8.58-1.36,1.74-2.56,3.48-3.6,1.74-1.04,4-1.56,6.79-1.56,3.34,0,5.85.59,7.54,1.77,1.69,1.18,2.71,2.63,3.05,4.35.34,1.72.51,5.25.51,10.61v16.26h-9.59v-2.89c-.6,1.16-1.38,2.03-2.33,2.6-.95.58-2.09.87-3.41.87-1.73,0-3.31-.48-4.75-1.45-1.44-.97-2.16-3.09-2.16-6.36v-2.66c0-2.42.38-4.08,1.15-4.96.76-.88,2.66-1.9,5.69-3.08,3.24-1.27,4.97-2.12,5.2-2.56.23-.44.34-1.33.34-2.69,0-1.69-.13-2.8-.38-3.31s-.67-.77-1.26-.77c-.67,0-1.08.22-1.25.65-.16.43-.24,1.55-.24,3.36v3.39ZM508.32,328.72c-1.58,1.16-2.5,2.12-2.75,2.91s-.38,1.9-.38,3.37c0,1.68.11,2.76.33,3.25s.66.73,1.31.73,1.02-.19,1.21-.57c.19-.38.28-1.39.28-3.01v-6.67Z"/>
    <path class="cls-1" d="M531.61,311.73l-.17,2.86c.88-1.16,1.85-2.02,2.91-2.59,1.06-.57,2.21-.86,3.47-.86,1.53,0,2.85.41,3.97,1.23,1.12.82,1.81,1.77,2.09,2.84.28,1.07.42,2.9.42,5.47v13.65c0,2.95-.18,5.04-.53,6.29s-1.07,2.24-2.15,2.98-2.39,1.11-3.92,1.11c-1.22,0-2.35-.29-3.39-.86-1.04-.57-1.99-1.42-2.86-2.54v7.43h-9.86v-37.01h10.03ZM534.41,321.15c0-2-.07-3.21-.22-3.64s-.55-.63-1.22-.63-1.07.24-1.26.73-.28,1.67-.28,3.54v13.43c0,1.95.1,3.17.29,3.66s.62.73,1.27.73,1.03-.22,1.18-.67c.15-.45.23-1.53.23-3.26v-13.89Z"/>
    <path class="cls-1" d="M557.39,304.6v8.89c.85-.78,1.76-1.37,2.75-1.76.98-.39,2.04-.59,3.16-.59,1.72,0,3.19.44,4.41,1.32s1.95,1.89,2.22,3.04.4,3.24.4,6.29v22.34h-9.86v-22.8c0-1.89-.09-3.1-.28-3.64s-.61-.81-1.26-.81c-.6,0-1.01.28-1.22.83-.21.55-.32,1.65-.32,3.3v23.12h-9.86v-39.53h9.86Z"/>
    <path class="cls-1" d="M583.88,304.6v5.15h-10.16v-5.15h10.16ZM583.88,311.73v32.4h-10.16v-32.4h10.16Z"/>
    <path class="cls-1" d="M609.22,323.96h-9.3v-3.74c0-1.3-.11-2.19-.32-2.65-.21-.46-.6-.7-1.17-.7s-.95.2-1.15.61-.29,1.32-.29,2.73v15.28c0,1.16.15,2.02.44,2.6.29.58.72.87,1.29.87.67,0,1.12-.3,1.35-.9s.35-1.74.35-3.42v-3.86h8.79c-.02,2.59-.11,4.53-.28,5.82s-.72,2.62-1.64,3.98c-.92,1.36-2.12,2.38-3.6,3.08-1.48.69-3.31,1.04-5.49,1.04-2.78,0-4.99-.48-6.62-1.43-1.63-.95-2.78-2.29-3.46-4-.68-1.72-1.01-4.15-1.01-7.31v-9.2c0-2.75.28-4.83.83-6.23.55-1.4,1.73-2.65,3.54-3.75s4-1.65,6.59-1.65,4.77.54,6.59,1.64c1.82,1.09,3.04,2.47,3.64,4.13.6,1.66.9,4.01.9,7.06Z"/>
    <path class="cls-1" d="M632.29,322.08h-8.74v-1.76c0-1.5-.09-2.45-.26-2.84-.17-.4-.6-.6-1.28-.6-.55,0-.97.18-1.25.55-.28.37-.42.92-.42,1.65,0,.99.07,1.72.21,2.18s.55.97,1.25,1.53,2.11,1.36,4.26,2.42c2.86,1.4,4.74,2.72,5.64,3.96.89,1.24,1.34,3.04,1.34,5.4,0,2.64-.34,4.63-1.03,5.97s-1.83,2.38-3.43,3.1c-1.6.72-3.54,1.09-5.8,1.09-2.51,0-4.65-.39-6.43-1.17s-3.01-1.84-3.67-3.17c-.67-1.33-1-3.35-1-6.05v-1.56h8.74v2.05c0,1.74.11,2.87.33,3.39s.66.78,1.31.78c.7,0,1.19-.17,1.46-.53.28-.35.42-1.09.42-2.21,0-1.55-.18-2.51-.54-2.91-.38-.39-2.29-1.55-5.74-3.47-2.9-1.63-4.66-3.1-5.3-4.43-.63-1.33-.95-2.9-.95-4.72,0-2.59.34-4.5,1.03-5.73.68-1.23,1.84-2.18,3.48-2.84s3.54-1,5.7-1,3.97.27,5.48.82c1.51.55,2.66,1.27,3.47,2.16s1.29,1.73,1.46,2.49.26,1.96.26,3.59v1.88Z"/>
  </g>
</svg>